<svg id="icon-pinterest" xmlns="http://www.w3.org/2000/svg" width="41.586" height="41.586" viewBox="0 0 41.586 41.586">
  <path id="XMLID_10_" d="M870.286,122.193A20.793,20.793,0,1,1,849.493,101.4,20.822,20.822,0,0,1,870.286,122.193Z" transform="translate(-828.7 -101.4)" fill="#f34147"/>
  <path id="XMLID_9_" d="M848.3,107.5c-6.889,0-10.4,4.76-10.4,8.768a11.032,11.032,0,0,0,.25,2.129,4.306,4.306,0,0,0,2.756,3.257.525.525,0,0,0,.752-.376,3.658,3.658,0,0,0,.25-1.127c.125-.376,0-.5-.25-.752a2.857,2.857,0,0,1-.752-1.5,4.262,4.262,0,0,1-.125-1.253,6.827,6.827,0,0,1,7.14-6.764c3.883,0,6.012,2.255,6.012,5.386a18.689,18.689,0,0,1-.25,2.63c-.626,2.881-2.255,4.885-4.384,4.885a2.207,2.207,0,0,1-2.255-2.756l.751-2.63a10.135,10.135,0,0,0,.5-2.38,1.937,1.937,0,0,0-2-2.129c-1.5,0-2.756,1.5-2.756,3.632a2.442,2.442,0,0,0,.125,1,3.1,3.1,0,0,0,.376,1.127s-1.628,6.513-1.879,7.641a14.379,14.379,0,0,0,0,5.386.24.24,0,0,0,.376.125,14.177,14.177,0,0,0,2.63-4.635c.125-.626,1-3.883,1-3.883a4.356,4.356,0,0,0,3.507,1.754c3.758,0,6.639-2.756,7.516-6.764a10.673,10.673,0,0,0,.376-2.881C857.566,111.508,853.808,107.5,848.3,107.5Z" transform="translate(-826.376 -99.859)" fill="#fff"/>
</svg>
