<svg xmlns="http://www.w3.org/2000/svg" width="41.586" height="41.586" viewBox="0 0 41.586 41.586">
  <g id="icon-instagram" transform="translate(0)">
    <path id="XMLID_16_" d="M823.186,122.193A20.793,20.793,0,1,1,802.393,101.4,20.822,20.822,0,0,1,823.186,122.193Z" transform="translate(-781.6 -101.4)" fill="#a07457"/>
    <path id="Trazado_6" data-name="Trazado 6" d="M808.291,108.2H793.26a4.758,4.758,0,0,0-4.76,4.76v15.156a4.758,4.758,0,0,0,4.76,4.76h15.031a4.758,4.758,0,0,0,4.76-4.76V112.96A4.758,4.758,0,0,0,808.291,108.2Zm1.253,2.756h.5v4.134h-4.134v-4.134Zm-12.4,7.014a4.061,4.061,0,0,1,3.507-1.754,4.383,4.383,0,0,1,3.507,1.754c.125.125.125.251.251.376a4.117,4.117,0,0,1,.5,2.129,4.438,4.438,0,0,1-4.384,4.384,4.357,4.357,0,0,1-4.384-4.384,5.9,5.9,0,0,1,.5-2.129C797.018,118.221,797.143,118.1,797.143,117.97Zm13.4,10.021a2.378,2.378,0,0,1-2.38,2.38H793.135a2.378,2.378,0,0,1-2.38-2.38V117.97h3.633c-.125.251-.125.5-.251.752a9.67,9.67,0,0,0-.251,1.879,6.764,6.764,0,0,0,13.528,0,9.666,9.666,0,0,0-.251-1.879c-.125-.251-.125-.5-.25-.752h3.633v10.021Z" transform="translate(-779.857 -99.682)" fill="#fff"/>
  </g>
</svg>
