<svg xmlns="http://www.w3.org/2000/svg" width="41.586" height="41.586" viewBox="0 0 41.586 41.586">
  <g id="icon-youtube" transform="translate(0)">
    <path id="XMLID_22_" d="M776.086,122.193A20.793,20.793,0,1,1,755.293,101.4,20.822,20.822,0,0,1,776.086,122.193Z" transform="translate(-734.5 -101.4)" fill="#f14343"/>
    <path id="Trazado_5" data-name="Trazado 5" d="M765.651,114.683a5.46,5.46,0,0,0-1-2.505,3.884,3.884,0,0,0-2.505-1.127c-3.382-.251-8.643-.251-8.643-.251h0s-5.136,0-8.643.251a3.5,3.5,0,0,0-2.505,1.127,5.46,5.46,0,0,0-1,2.505,40.983,40.983,0,0,0-.251,4.134v2a37.827,37.827,0,0,0,.251,4.134,5.46,5.46,0,0,0,1,2.505,4.18,4.18,0,0,0,2.756,1.127c2,.251,8.392.251,8.392.251s5.136,0,8.643-.251a3.5,3.5,0,0,0,2.505-1.127,5.46,5.46,0,0,0,1-2.505,40.984,40.984,0,0,0,.251-4.134v-2A40.983,40.983,0,0,0,765.651,114.683Zm-7.891,4.885-6.639,3.633v-7.14l3.006,1.628Z" transform="translate(-732.833 -99.026)" fill="#fff"/>
  </g>
</svg>
