<svg xmlns="http://www.w3.org/2000/svg" width="41.586" height="41.586" viewBox="0 0 41.586 41.586">
  <g id="icon-twitter" transform="translate(0)">
    <path id="XMLID_7_" d="M917.386,122.193A20.793,20.793,0,1,1,896.593,101.4,20.822,20.822,0,0,1,917.386,122.193Z" transform="translate(-875.8 -101.4)" fill="#48bded"/>
    <path id="XMLID_1_" d="M907.226,113.38a10.833,10.833,0,0,1-2.881.752,5.42,5.42,0,0,0,2.255-2.756,9.288,9.288,0,0,1-3.257,1.253A4.929,4.929,0,0,0,899.71,111a5.025,5.025,0,0,0-5.01,5.01,3.468,3.468,0,0,0,.125,1.127,14.638,14.638,0,0,1-10.4-5.136,5.7,5.7,0,0,0-.626,2.505,4.84,4.84,0,0,0,2.255,4.134,4.325,4.325,0,0,1-2.255-.626h0a4,4,0,0,0,.376,1.754,5.319,5.319,0,0,0,3.758,3.131,4.7,4.7,0,0,1-1.378.125,2.758,2.758,0,0,1-1-.125,5.164,5.164,0,0,0,4.76,3.507,9.965,9.965,0,0,1-6.263,2.129,4.7,4.7,0,0,1-1.253-.125,14.829,14.829,0,0,0,7.766,2.255A14.082,14.082,0,0,0,904.6,119.518a12.355,12.355,0,0,0,.376-3.006v-.626A15.048,15.048,0,0,0,907.226,113.38Z" transform="translate(-874.032 -98.975)" fill="#fff"/>
  </g>
</svg>
